/* XPM */
static char *f055256e3f0a4fec821f4fffeeed0a82f3srsrvSCsPk810L[] = {
/* columns rows colors chars-per-pixel */
"32 32 18 1 ",
"  c None",
". c #0A090A",
"X c #241E08",
"o c #2B2103",
"O c #38362E",
"+ c #3D3A31",
"@ c #42383D",
"# c #1E4F13",
"$ c #5E5E0A",
"% c #695317",
"& c #69665C",
"* c #91762A",
"= c #459418",
"- c #A3A30D",
"; c #BDBD1E",
": c #CCCC02",
"> c #E8E843",
", c #F55BA0",
/* pixels */
"oooo@ooooooooooooooooooooooooooo",
"+o@o@@@oooooooooo@@o@ooo%%%%oooo",
"oooo@@o##ooo,ooooooooo%%%ooo@ooo",
"o@ooooo#oooo,oo&&o&oooooo#oooo@o",
"o@@oooo#oooo,oo&ooooooOoo#oo@@oo",
"oooo&ooo+oXooo.ooooo%oXoo#ooo@oo",
"oo@oooooooXoooooo&oo%oXXo#oooooo",
"oo@oooOooooXXoooooo%ooo&X*oOoooo",
"o@oooooooo#ooXXXooooooooXooOOo%o",
"ooooo&ooo##o.oooXXXXXXooXooooo%o",
"+o+ooooo#ooooooooooooooooXooOo%%",
"oooOooo*oooo$$$$$$$ooo%%%%oooooo",
"oooOoooooo$$$>$>>>=$$ooooooooooo",
"OoooXXXXXX$>>=>> >==$oo&o%o#oooo",
"Oooooooooo$>>>>=>>>=$oooo%oo#ooo",
"oo@@@####$$>>:--->$$.oXoo&Oo*o@o",
"oooo@ooo$$>>:-::-&>$ooXoooOoo@oo",
"oooo@@oo$>>;:--:&;$$oXo%ooooo@oo",
"ooOXooo&$>>;::-:o;$ooXo%oOooo@oo",
"ooOoXXoo$$>;&:::;;$oXooooOoo#@oo",
"ooOoooXXX$$;;;;;;$$Xoo@oooo#o@oo",
"o%ooo%%ooXXXo$;;$$Xooo@@ooo#o@oo",
"%%oo.o%oo.ooX$$;$oooooo@o%o*o@oo",
"%o&ooo%%o.ooo$$;$ooOOoo@o%%ooooo",
"%ooo%oOoo&oooo,oooooooo@oo%oooXo",
"ooo&%oooo&oOoo,oOoo.oooooOoooXoo",
"o@o&%oo&oooo&o,ooooooooooOooXXoo",
"o@oooo&&oooooo,ooooooOOoooooXo+o",
"@oo%o%oo&ooo&&oooO&OOooo.ooXoooo",
"@@ooo&ooo&ooo&o%oo.ooooooooXoo%%",
"o@@%oo&oo&oooo%%ooooo.ooo+o+oooo",
"ooo%oooooooooo%ooo+ooooooooooooo"
};
