/* XPM */
static char *_252a42734a74ad2d67b35a2dc3741d6RMYmBsK1TRehlj6d[] = {
/* columns rows colors chars-per-pixel */
"32 32 12 1 ",
"  c None",
". c #0A090A",
"X c #241E08",
"o c #2B2103",
"O c #38362E",
"+ c #3D3A31",
"@ c #42383D",
"# c #1E4F13",
"$ c #695317",
"% c #69665C",
"& c #91762A",
"* c #F55BA0",
/* pixels */
"oooo@ooooooooooooooooooooooooooo",
"+o@o@@@oooooooooo@@o@ooo$$$$oooo",
"oooo@@o##ooo*ooooooooo$$$ooo@ooo",
"o@ooooo#oooo*oo%%o%oooooo#oooo@o",
"o@@oooo#oooo*oo%ooooooOoo#oo@@oo",
"oooo%ooo+oXooo.ooooo$oXoo#ooo@oo",
"oo@oooooooXoooooo%oo$oXXo#oooooo",
"oo@oooOooooXXoooooo$ooo%X&oOoooo",
"o@oooooooo#ooXXXooooooooXooOOo$o",
"ooooo%ooo##o.oooXXXXXXooXooooo$o",
"+o+ooooo#ooooooooooooooooXooOo$$",
"oooOooo&oooooXooo%%ooo$$$$oooooo",
"oooOooooooo%XXXXX %%oooooooooooo",
"OoooXXXXXXXXoooooXXXooo%o$o#oooo",
"Oooooooooooooo####ooooooo$oo#ooo",
"oo@@@####oooo#oooooo.oXoo%Oo&o@o",
"oooo@ooo#oo&#oooo%ooooXoooOoo@oo",
"oooo@@oo##&ooooo%ooooXo$ooooo@oo",
"ooOXooo%oooooooooo+ooXo$oOooo@oo",
"ooOoXXooooo%%oo.ooooXooooOoo#@oo",
"ooOoooXXXoooooo.oooXoo@oooo#o@oo",
"o$ooo$$ooXXXoooooXXooo@@ooo#o@oo",
"$$oo.o$oo.ooXXXXXoooooo@o$o&o@oo",
"$o%ooo$$o.oooooooooOOoo@o$$ooooo",
"$ooo$oOoo%oooo*oooooooo@oo$oooXo",
"ooo%$oooo%oOoo*oOoo.oooooOoooXoo",
"o@o%$oo%oooo%o*ooooooooooOooXXoo",
"o@oooo%%oooooo*ooooooOOoooooXo+o",
"@oo$o$oo%ooo%%oooO%OOooo.ooXoooo",
"@@ooo%ooo%ooo%o$oo.ooooooooXoo$$",
"o@@$oo%oo%oooo$$ooooo.ooo+o+oooo",
"ooo$oooooooooo$ooo+ooooooooooooo"
};
