/* XPM */
static char *result[] = {
/* columns rows colors chars-per-pixel */
"32 32 20 1 ",
"  c #0A090A",
". c #0D0B08",
"X c #2B1F06",
"o c #241E08",
"O c #2B2103",
"+ c #38362E",
"@ c #3D3A31",
"# c #422207",
"$ c #422F09",
"% c #453006",
"& c #753C0B",
"* c #42383D",
"= c #1E4F13",
"- c #734A15",
"; c #695317",
": c #4D473F",
"> c #69665C",
", c #91762A",
"< c #191B85",
"1 c #F55BA0",
/* pixels */
"OOOO*OOOOOOOOOOOOOOOOOOOOOOOOOOO",
"@O*O***OOOOOOOOOO**O*OOO;;;;OOOO",
"OOOO**O==OOO1OOOOOOOOO;;;OOO*OOO",
"O*OOOOO=OOOO1OO>>O>OOOOOO=OOOO*O",
"O**OOOO=OOOO1OO>OOOOOO+OO=OO**OO",
"OOOO>OOO@OoOOO OOOOO;OoOO=OOO*OO",
"OO*OOOOOOO:::::::>OO;OooO=OOOOOO",
"OO*OOO+OO:########:;OOO>o,O+OOOO",
"O*OOOOOOO:#&&$$$$##:OOOOoOO++O;O",
"OOOOO>OO:##&$$$$$$#:ooOOoOOOOO;O",
"@O@OOOOO:#&&$OOO$$$#:OOOOoOO+O;;",
"OOO+OOO:##&$$oOOO$$#:O;;;;OOOOOO",
"OOO+OOO:#&&$ooooo$$#:OOOOOOOOOOO",
"+OOOoo:##$$$O---Oo$$#:O>O;O=OOOO",
"+OOOOO:#$$OO-<<<-XO$#:OOO;OO=OOO",
"OO***=:#$OOO-<<<-OO$#:oOO>+O,O*O",
"OOOO*O:#$OXXX---OXO$#:oOOO+OO*OO",
"OOOO**:#$XXOOOOOXOO$#:O;OOOOO*OO",
"OO+oOO:#$OOOOOXXX..$#:O;O+OOO*OO",
"OO+Ooo:#$OOXXXXXOOO$#:OOO+OO=*OO",
"OO+OOO:#$OOOOOOXOOO$#:*OOOO=O*OO",
"O;OOO;:#$oo%O%O%O%o$#:**OOO=O*OO",
";;OO O:#$XO%o%o%o%O$#:O*O;O,O*OO",
";O>OOO:#$XO%O%O%O%O$#:O*O;;OOOOO",
";OOO;O:#$XOOOXXXOOO$#:O*OO;OOOoO",
"OOO>;O:#$$$$$$$$$$$$#:OOO+OOOoOO",
"O*O>;O:##############:OOO+OOooOO",
"O*OOOO::::::::::::::::+OOOOOoO@O",
"*OO;O;OO>OOO>>OOO+>++OOO OOoOOOO",
"**OOO>OOO>OOO>O;OO OOOOOOOOoOO;;",
"O**;OO>OO>OOOO;;OOOOO OOO@O@OOOO",
"OOO;OOOOOOOOOO;OOO@OOOOOOOOOOOOO"
};
