/* XPM */
static char *afad6f2d87d74a9da286c5ee6f523e49I1emppbkMmn7Vr1F[] = {
/* columns rows colors chars-per-pixel */
"32 32 20 1 ",
"  c None",
". c #080708",
"X c #0A090A",
"o c #0F0E0D",
"O c #0F0D0F",
"+ c #241E08",
"@ c #301D09",
"# c #2B2103",
"$ c #3B2E09",
"% c #38362E",
"& c #3D3A31",
"* c #42383D",
"= c #1E4F13",
"- c #695317",
"; c #69665C",
": c #91762A",
"> c #F0F70F",
", c #F55BA0",
"< c #E016E0",
"1 c white",
/* pixels */
"####*###########################",
"&#*#***##########**#*###----####",
"####**#==###,#########---###*###",
"#*#####=####,##;;#;######=####*#",
"#**####=####,##;######%##=##**##",
"####;###&#+$ $X#####-#+##=###*##",
"##*#######$<1111111#-#++#=######",
"##*###%###<1111#<<11###;+:#%####",
"#*########<1#+++#$<1####+##%%#-#",
"#####;###=<1X###+$<1++##+#####-#",
"&#&#####=#<1#..#oo<1#####+##%#--",
"###%###:##<1#+##$<11##----######",
"###%######<11+>><11;############",
"%###++++++$<111111++###;#-#=####",
"%##########$<<11==#######-##=###",
"##***==@<$###<1#####X#+##;%#:#*#",
"####*##<1<<<<<1##;###1+###%##*##",
"####**#@<111111111111+#-#####*##",
"##%+###<1<<<<<1<<<<<<1#-#%###*##",
"##%#++#@<<#$$<1X####+<###%##=*##",
"##%###+++####<1X###+##*####=#*##",
"#-###--##+++<<1##++###**###=#*##",
"--##X#-##X#<<1 1+######*#-#:#*##",
"-#;###--#X<<1 @<1##%%##*#--#####",
"-###-#%##;<1@@@<11#####*##-###+#",
"###;-####;<1@@,<<1#X#####%###+##",
"#*#;-##;#<1oo@,#<11######%##++##",
"#*####;;#<1@@#,##<1##%%#####+#&#",
"*##-#-##;<@@;;###%;%%###X##+####",
"**###;###;###;#-##X########+##--",
"#**-##;##;####--#####X###&#&####",
"###-##########-###&#############"
};
