/* XPM */
static char *f1621173d1b44f11e54206d973ee3a39UeHKnvp3EzZibVxI[] = {
/* columns rows colors chars-per-pixel */
"32 32 8 1 ",
"  c #3B3B32",
". c #4A3F0C",
"X c #194F06",
"o c #14470B",
"O c #4A4841",
"+ c #696558",
"@ c #B3B319",
"# c #CC1DA6",
/* pixels */
"O.O.OOO.OOOOOOOOOOO.OOO..OOO.OOO",
"..O.OOO.OOO+OOO.XXO.XOOO.OO..OOO",
".XX.OOO.OOOO+OOO.XOXO#OO.O+.OOOO",
"..XXXOOO.OOOO+OOOX.O#@#O.O+OOoOO",
"O...XOOOOOOOO+OOOOO.OoOOXX+OOoOO",
"O+OXXOOOOOOOO+OO++O..ooOOOOOooOO",
"+OOOO+++OOOOO+OO+OOO.OooO###oOOO",
"+OOO++OOO.OO++OOOO+O.OOoO#@oo...",
"++OO+OO+O.OO+++OOO+O+OOOOO#OO.OO",
"OO+O+OO+O.O+++OOOO++++OOOOOOOOOO",
"OOO++OO+O.O+O+OOOOOO++OOOO+OOOOO",
"OOO++OO+O.OOO+OOOOOO+OOOOO+OO...",
"OOOO++++O.OOOOOOO OO++OOOO+OOOO.",
"OOOO+OOOOO OO++O  O+++O+OOOOO OO",
"OOOO+OOOOOOOO+OO OO++OO+OOOOO OO",
"OOOO+O++OOOOO+OOOO+++++O OOOO OO",
"OOOO+OO+O O+O+OOOO+O+O+O OO+O OO",
"OOOO+OOOOO++OOOO  OO++OO OO+OOOO",
"OOOO+OOOOO+OOOOOOOOO+OOO O+OO..O",
"OOOO+OOO O+O##OOOOO++OO OO+OOO..",
"OO#O+OOOOOO+#@#OOOOO+OO OO+OOOO.",
"O#@#O+OO.OO+OoOO OOO++OOOOOOOOO.",
"OOoOOOOO.OO+ooOO OO++OOOO OOOOOO",
"OOoOOOO..Ooo+OOOO+++OOOO  OOOOOO",
"OOOoOOO.OOOO+++++OOOOOO  OO+OOOO",
"OOOOoO.OOOOO++OOOOOOOO  OOO+OOOO",
"O+OOOO.OO+OOO+OOOOOO.OOOOOOOOOOO",
"O+++++++++O+++OOOOO.OOOO...XOOOO",
"OOOOOOOOOOOOOOOX..O...XOOOX.XOOO",
"OOOOOOOOOOOOOOX.XOOXXX.OOOO.XXOO",
"OOOX...OOOOOO..XXOOXOO.OOOOO.XXO",
"OOOOOO..OOOO.XXXOOOOOO.OOOOOO.XO"
};
